<?xml version="1.0" ?>
<!-- Uploaded to: SVG Repo, www.svgrepo.com, Generator: SVG Repo Mixer Tools -->
<svg width="800px" height="800px" viewBox="0 0 25 25" xmlns="http://www.w3.org/2000/svg">
<defs>
<style>.cls-1{fill:#ff7900;}</style>
</defs>
<g id="stopwatch">
<path class="cls-1" d="M19.83,8.46l1.25-1.53a.78.78,0,0,0,.19-.6.8.8,0,0,0-.3-.56l-1-.85a.79.79,0,0,0-.6-.19.8.8,0,0,0-.56.3l-1.2,1.45A9.35,9.35,0,0,0,14,5.13V4h1.17A.83.83,0,0,0,16,3.17V1.83A.83.83,0,0,0,15.17,1H9.83A.83.83,0,0,0,9,1.83V3.17A.83.83,0,0,0,9.83,4H11V5.13A9.45,9.45,0,0,0,7.22,6.61L5.93,5a.84.84,0,0,0-1.17-.11l-1,.84a.84.84,0,0,0-.12,1.17L5,8.59,5,8.64a9.49,9.49,0,1,0,14.79-.18Zm-.4-2.66.77.63L19.14,7.72a9.56,9.56,0,0,0-.75-.66ZM10,2h5V3H10Zm2,2h1V5c-.17,0-.33,0-.5,0s-.33,0-.5,0ZM4.49,6.43l.78-.63L6.42,7.21a9.33,9.33,0,0,0-.73.68ZM12.5,23A8.5,8.5,0,1,1,21,14.5,8.51,8.51,0,0,1,12.5,23Z"/>
<path class="cls-1" d="M13,14.29V9.5a.5.5,0,0,0-1,0v5a.47.47,0,0,0,.15.35l4,4a.48.48,0,0,0,.7,0,.48.48,0,0,0,0-.7Z"/>
</g>
</svg>